<svg id="Layer_1" height="512" viewBox="0 0 128 128" width="512" xmlns="http://www.w3.org/2000/svg" data-name="Layer 1"><path d="m117 111.006h-12.875v-5.534a1.75 1.75 0 0 0 -1.75-1.75h-28.58v-5.228h6.872a15.6 15.6 0 0 0 15.583-15.584v-17.256a15.673 15.673 0 0 0 -4.733-11.187l-7.47-7.244 12-12a1.749 1.749 0 0 0 0-2.475l-3.182-3.182 6.188-6.187a1.749 1.749 0 0 0 0-2.475l-6.895-6.895a1.749 1.749 0 0 0 -2.475 0l-6.183 6.185-3.182-3.182a1.749 1.749 0 0 0 -2.475 0l-27.932 27.932-10.571 3.74a1.75 1.75 0 0 0 -.653 2.887l22.8 22.8a1.75 1.75 0 0 0 2.887-.653l3.74-10.57 13.457-13.448 7.508 7.281a12.15 12.15 0 0 1 3.671 8.674v17.255a12.1 12.1 0 0 1 -12.083 12.084h-32.267a12.091 12.091 0 0 1 -11.946-10.334h13.213a1.75 1.75 0 0 0 1.75-1.75v-7.283a1.75 1.75 0 0 0 -1.75-1.75h-30.209a1.75 1.75 0 0 0 -1.75 1.75v7.283a1.75 1.75 0 0 0 1.75 1.75h13.46a15.6 15.6 0 0 0 15.482 13.834h5.8v5.229h-28.575a1.75 1.75 0 0 0 -1.75 1.75v5.534h-12.875a1.75 1.75 0 0 0 0 3.5h106a1.75 1.75 0 0 0 0-3.5zm-26.075-93.287 4.42 4.419-4.95 4.95-4.42-4.42zm-11.844 3.005 13.258 13.258-25.739 25.738-13.257-13.258zm-17.081 49.215-18.876-18.881 7.287-2.578 14.172 14.172zm-40.8 7.438h26.717v3.783h-26.709zm36.5 21.117h12.59v5.229h-12.59zm-30.33 8.729h73.25v3.784h-73.245z"/></svg>