<svg id="Layer_1" height="512" viewBox="0 0 128 128" width="512" xmlns="http://www.w3.org/2000/svg" data-name="Layer 1"><path d="m117 25.291h-8.729c-2.665-.832-23.2-6.789-44.271-.082-21.068-6.707-41.607-.751-44.271.082h-8.729a1.75 1.75 0 0 0 -1.75 1.75v77.132a1.75 1.75 0 0 0 1.75 1.75h106a1.75 1.75 0 0 0 1.75-1.75v-77.132a1.75 1.75 0 0 0 -1.75-1.75zm-10.75 3.061v67.627a97.913 97.913 0 0 0 -40.5-.032v-67.618c17.908-5.449 35.776-1.278 40.5.023zm-44-.029v67.624a97.936 97.936 0 0 0 -40.5.032v-67.627c4.725-1.301 22.593-5.478 40.5-.029zm-49.5.468h5.5v69.386a1.75 1.75 0 0 0 1.75 1.75 1.73 1.73 0 0 0 .414-.05 95.342 95.342 0 0 1 41.836-.331v2.877h-49.5zm102.5 73.632h-49.5v-2.876a95.355 95.355 0 0 1 41.836.331 1.75 1.75 0 0 0 2.164-1.7v-69.387h5.5z"/><path d="m28.546 44.053c.135-.044 13.606-4.373 26.907 0a1.75 1.75 0 0 0 1.093-3.325c-14.38-4.728-28.5-.2-29.093 0a1.75 1.75 0 1 0 1.093 3.325z"/><path d="m28.546 56.794c.135-.044 13.606-4.373 26.907 0a1.75 1.75 0 1 0 1.093-3.325c-14.38-4.728-28.5-.2-29.093 0a1.75 1.75 0 1 0 1.093 3.325z"/><path d="m28.546 69.535c.135-.044 13.606-4.373 26.907 0a1.75 1.75 0 1 0 1.093-3.325c-14.38-4.728-28.5-.2-29.093 0a1.75 1.75 0 1 0 1.093 3.325z"/><path d="m28.546 82.275c.135-.044 13.606-4.373 26.907 0a1.75 1.75 0 0 0 1.093-3.325c-14.38-4.728-28.5-.2-29.093 0a1.75 1.75 0 0 0 1.093 3.325z"/><path d="m72 44.141a1.754 1.754 0 0 0 .547-.088c13.261-4.359 26.773-.043 26.908 0a1.75 1.75 0 0 0 1.092-3.326c-.595-.195-14.71-4.727-29.094 0a1.751 1.751 0 0 0 .547 3.414z"/><path d="m72 56.882a1.754 1.754 0 0 0 .547-.088c13.261-4.359 26.773-.043 26.908 0a1.75 1.75 0 0 0 1.092-3.326c-.595-.2-14.71-4.727-29.094 0a1.751 1.751 0 0 0 .547 3.414z"/><path d="m72 69.623a1.754 1.754 0 0 0 .547-.088c13.261-4.36 26.773-.044 26.908 0a1.75 1.75 0 0 0 1.092-3.326c-.595-.194-14.71-4.727-29.094 0a1.751 1.751 0 0 0 .547 3.414z"/><path d="m100.547 78.95c-.595-.2-14.71-4.727-29.094 0a1.75 1.75 0 1 0 1.094 3.325c13.261-4.36 26.773-.044 26.908 0a1.75 1.75 0 0 0 1.092-3.326z"/></svg>