<?xml version="1.0"?>
<svg xmlns="http://www.w3.org/2000/svg" id="Layer_1" data-name="Layer 1" viewBox="0 0 128 128" width="512" height="512"><title>ENGINEERING</title><path d="M99.75,41H91.68a28.3,28.3,0,0,0-4.047-9.759l5.71-5.71a1.749,1.749,0,0,0,0-2.475L87.69,17.407a1.749,1.749,0,0,0-2.475,0l-5.71,5.71a28.3,28.3,0,0,0-9.759-4.047V11A1.75,1.75,0,0,0,68,9.25H60A1.75,1.75,0,0,0,58.253,11v8.07a28.3,28.3,0,0,0-9.759,4.047l-5.71-5.71a1.749,1.749,0,0,0-2.475,0L34.657,23.06a1.749,1.749,0,0,0,0,2.475l5.71,5.71A28.3,28.3,0,0,0,36.32,41H28.25a1.75,1.75,0,0,0-1.75,1.75v7.994a1.75,1.75,0,0,0,1.75,1.75h8.07a28.3,28.3,0,0,0,4.047,9.759l-5.71,5.71a1.749,1.749,0,0,0,0,2.475l5.652,5.652a1.749,1.749,0,0,0,2.475,0l5.71-5.71a28.328,28.328,0,0,0,9.759,4.047v22.2a12.043,12.043,0,0,0,2.025,22.038A1.75,1.75,0,0,0,62.569,117v-8.037h2.861V117a1.749,1.749,0,0,0,2.291,1.664,12.043,12.043,0,0,0,2.025-22.038V74.43a28.328,28.328,0,0,0,9.759-4.047l5.71,5.71a1.749,1.749,0,0,0,2.475,0l5.652-5.652a1.749,1.749,0,0,0,0-2.475l-5.71-5.71A28.3,28.3,0,0,0,91.68,52.5h8.07a1.75,1.75,0,0,0,1.75-1.75V42.753A1.75,1.75,0,0,0,99.75,41Zm-27.206,66.21a8.516,8.516,0,0,1-3.613,6.979v-6.979a1.75,1.75,0,0,0-1.75-1.75H60.819a1.75,1.75,0,0,0-1.75,1.75v6.979a8.546,8.546,0,0,1,1.614-14.854,1.75,1.75,0,0,0,1.069-1.612V59.05a1.749,1.749,0,0,0-1.209-1.664,11.184,11.184,0,0,1-2.291-20.233v9.6A1.75,1.75,0,0,0,60,48.5H68a1.75,1.75,0,0,0,1.75-1.75v-9.6a11.184,11.184,0,0,1-2.291,20.233,1.749,1.749,0,0,0-1.209,1.664V97.725a1.75,1.75,0,0,0,1.069,1.612A8.532,8.532,0,0,1,72.544,107.213ZM98,49H90.217a1.751,1.751,0,0,0-1.73,1.488A24.739,24.739,0,0,1,83.951,61.42a1.75,1.75,0,0,0,.172,2.275L89.631,69.2l-3.178,3.178-5.508-5.508A1.751,1.751,0,0,0,78.67,66.7a24.775,24.775,0,0,1-8.923,4.132V60.263a14.682,14.682,0,0,0-1.209-27.477,1.75,1.75,0,0,0-2.291,1.664V45H61.753V34.45a1.75,1.75,0,0,0-2.291-1.664,14.682,14.682,0,0,0-1.209,27.477V70.834A24.775,24.775,0,0,1,49.33,66.7a1.753,1.753,0,0,0-2.275.172l-5.508,5.508L38.369,69.2,43.877,63.7a1.75,1.75,0,0,0,.172-2.275,24.739,24.739,0,0,1-4.535-10.935A1.751,1.751,0,0,0,37.783,49H30V44.5h7.783a1.751,1.751,0,0,0,1.73-1.488A24.739,24.739,0,0,1,44.049,32.08a1.75,1.75,0,0,0-.172-2.275L38.369,24.3l3.178-3.178,5.508,5.508a1.752,1.752,0,0,0,2.275.172,24.739,24.739,0,0,1,10.935-4.535,1.751,1.751,0,0,0,1.488-1.73V12.75h4.494v7.783a1.751,1.751,0,0,0,1.488,1.73A24.739,24.739,0,0,1,78.67,26.8a1.75,1.75,0,0,0,2.275-.172l5.508-5.508L89.631,24.3,84.123,29.8a1.75,1.75,0,0,0-.172,2.275,24.739,24.739,0,0,1,4.535,10.935,1.751,1.751,0,0,0,1.73,1.488H98Z"/></svg>
