<svg height="496pt" viewBox="0 -20 496 496" width="496pt" xmlns="http://www.w3.org/2000/svg"><path d="m40 336h424v80h-424zm0 0" fill="#cca400"/><path d="m40 376c0 22.089844 17.910156 40 40 40h408v32h-408c-39.765625 0-72-32.234375-72-72s32.234375-72 72-72h408v32h-408c-22.089844 0-40 17.910156-40 40zm0 0" fill="#fbb040"/><path d="m336 104v144c0 17.671875-14.328125 32-32 32h-112c-17.671875 0-32-14.328125-32-32v-144zm0 0" fill="#e0e0e2"/><path d="m400 144v80h-64v-24h40v-32h-40v-24zm0 0" fill="#acabb1"/><path d="m96 280h304v24h-304zm0 0" fill="#3e3d42"/><g fill="#231f20"><path d="m488 344c4.417969 0 8-3.582031 8-8v-32c0-4.417969-3.582031-8-8-8h-80v-16c0-4.417969-3.582031-8-8-8h-64.207031c5.292969-6.882812 8.175781-15.316406 8.207031-24v-16h56c4.417969 0 8-3.582031 8-8v-80c0-4.417969-3.582031-8-8-8h-56v-32c0-4.417969-3.582031-8-8-8h-176c-4.417969 0-8 3.582031-8 8v144c.03125 8.683594 2.914062 17.117188 8.207031 24h-64.207031c-4.417969 0-8 3.582031-8 8v16h-8c-44.183594 0-80 35.816406-80 80s35.816406 80 80 80h408c4.417969 0 8-3.582031 8-8v-32c0-4.417969-3.582031-8-8-8h-16v-64zm-144-168h24v16h-24zm48-24v64h-48v-8h32c4.417969 0 8-3.582031 8-8v-32c0-4.417969-3.582031-8-8-8h-32v-8zm-224 96v-136h160v136c0 13.253906-10.746094 24-24 24h-112c-13.253906 0-24-10.746094-24-24zm-64 40h288v8h-288zm376 152h-400c-35.347656 0-64-28.652344-64-64s28.652344-64 64-64h400v16h-400c-26.507812 0-48 21.492188-48 48s21.492188 48 48 48h400zm-24-32h-376c-17.671875 0-32-14.328125-32-32s14.328125-32 32-32h376zm0 0"/><path d="m376 392h64c4.417969 0 8-3.582031 8-8s-3.582031-8-8-8h-64c-4.417969 0-8 3.582031-8 8s3.582031 8 8 8zm0 0"/><path d="m344 392h8c4.417969 0 8-3.582031 8-8s-3.582031-8-8-8h-8c-4.417969 0-8 3.582031-8 8s3.582031 8 8 8zm0 0"/><path d="m211.199219 88c-.058594-3.195312 1.117187-6.292969 3.289062-8.640625 8.402344-10.527344 8.402344-25.46875 0-36-4.394531-4.941406-4.394531-12.390625 0-17.335937 4.15625-5.078126 6.390625-11.460938 6.3125-18.023438 0-4.417969-3.582031-8-8-8s-8 3.582031-8 8c.058594 3.207031-1.121093 6.308594-3.296875 8.664062-4.144531 5.082032-6.378906 11.457032-6.304687 18.015626-.074219 6.558593 2.15625 12.929687 6.304687 18.007812 4.390625 4.9375 4.390625 12.375 0 17.3125-4.148437 5.074219-6.378906 11.445312-6.304687 18 0 4.417969 3.582031 8 8 8s8-3.582031 8-8zm0 0"/><path d="m251.199219 88c-.058594-3.195312 1.117187-6.292969 3.289062-8.640625 8.402344-10.527344 8.402344-25.46875 0-36-4.394531-4.941406-4.394531-12.390625 0-17.335937 4.15625-5.078126 6.390625-11.460938 6.3125-18.023438 0-4.417969-3.582031-8-8-8s-8 3.582031-8 8c.058594 3.207031-1.121093 6.308594-3.296875 8.664062-4.144531 5.082032-6.378906 11.457032-6.304687 18.015626-.074219 6.558593 2.15625 12.929687 6.304687 18.007812 4.390625 4.9375 4.390625 12.375 0 17.3125-4.148437 5.074219-6.378906 11.445312-6.304687 18 0 4.417969 3.582031 8 8 8s8-3.582031 8-8zm0 0"/><path d="m291.199219 88c-.058594-3.195312 1.117187-6.292969 3.289062-8.640625 8.402344-10.527344 8.402344-25.46875 0-36-4.394531-4.941406-4.394531-12.390625 0-17.335937 4.15625-5.078126 6.390625-11.460938 6.3125-18.023438 0-4.417969-3.582031-8-8-8s-8 3.582031-8 8c.058594 3.207031-1.121093 6.308594-3.296875 8.664062-4.144531 5.082032-6.378906 11.457032-6.304687 18.015626-.074219 6.558593 2.15625 12.929687 6.304687 18.007812 4.390625 4.9375 4.390625 12.375 0 17.3125-4.148437 5.074219-6.378906 11.445312-6.304687 18 0 4.417969 3.582031 8 8 8s8-3.582031 8-8zm0 0"/><path d="m253.679688 234.320312c-.777344-.707031-1.671876-1.273437-2.640626-1.679687-2.988281-1.167969-6.378906-.511719-8.71875 1.679687-.707031.777344-1.273437 1.671876-1.679687 2.640626-.410156.960937-.628906 1.992187-.640625 3.039062 0 4.417969 3.582031 8 8 8s8-3.582031 8-8c-.011719-1.046875-.230469-2.078125-.640625-3.039062-.40625-.96875-.972656-1.863282-1.679687-2.640626zm0 0"/><path d="m320 240c0-4.417969-3.582031-8-8-8h-40c-4.417969 0-8 3.582031-8 8s3.582031 8 8 8h40c4.417969 0 8-3.582031 8-8zm0 0"/></g></svg>