<svg height="512" viewBox="0 0 60 60" width="512" xmlns="http://www.w3.org/2000/svg"><g id="081---Sunbathing" fill="none"><g id="Icons" transform="translate(1 8)"><path id="Shape" d="m19 14c-.0004288 2.7087046-1.8156712 5.0812223-4.43 5.79-.01-.01-.01 0-.01 0-.4387541-.1744276-.9079393-.259425-1.38-.25l-6.15-6.14c.3193244-3.1812593 3.0771384-5.55328945 6.2703748-5.39322747 3.1932365.16006198 5.7000254 2.79598197 5.6996252 5.99322747z" fill="#dfc49c"/><path id="Shape" d="m12.89 19.25-5.86-5.85c.25290299-2.5022527 2.04269691-4.57969204 4.48-5.2 2.3741713.61908838 4.1313202 2.6226039 4.4353757 5.0572517.3040556 2.4346479-.906383 4.8087761-3.0553757 5.9927483z" fill="#ffe0b2"/><path id="Shape" d="m25.53 30.36-5.66 4.24c-17.319-17.318-13.021-12.9-17.6-17.48-.85688121-.8579473-1.11303278-2.1473683-.6491479-3.2676941.46388487-1.1203257 1.55658128-1.8512394 2.7691479-1.8523059 1.04375431.0532221 2.01038509.5658293 2.64 1.4l6.15 6.143c1.74 0 2.43.9 3.4 1.87z" fill="#dfc49c"/><path id="Shape" d="m23.6 31.81-3.72 2.79h-.01c-14.881-14.881-14.105-13.985-17.6-17.48-1.10726012-1.1070411-1.17693722-2.8794524-.16-4.07 1.01941398.0723427 1.95883355.5784641 2.58 1.39v.01c6.63 6.61 6.11 6.14 6.23 6.14.9314882-.0038688 1.8253269.3673625 2.48 1.03 4.97 4.97 8.42 8.42 10.2 10.19z" fill="#ffe0b2"/><path id="Shape" d="m45.95 37c-.5371061-.0045388-1.0588775-.1796298-1.49-.5-.285-.214.221.272-6.46-6.42l-2.46 2.46-3.53-3.53c3.343-3.354 3.48-3.638 4.49-4.05 1.4893459-.600024 3.1930209-.2537806 4.33.88l6.89 6.89c.7168842.715071.9316507 1.7919472.5439215 2.7273164-.3877291.9353692-1.3013771 1.5444952-2.3139215 1.5426836z" fill="#dfc49c"/><path id="Shape" d="m44.46 36.5c-.285-.214.221.272-6.46-6.42-.777209.8654312-1.6343408 1.6555996-2.56 2.36l-3.43-3.43c3.343-3.354 3.48-3.638 4.49-4.05 1.013.413.585.135 8.22 7.77.5141127.5114396.7808164 1.2209149.7309227 1.944374-.0498938.723459-.4114678 1.3896049-.9909227 1.825626z" fill="#ffe0b2"/><path id="Shape" d="m35.54 32.54-4.45 4.46h-8.81l-2.41-2.4 5.66-4.24.44.44c1.1712702 1.1698135 3.0687298 1.1698135 4.24 0l1.8-1.79z" fill="#ef314c"/><path id="Shape" d="m50 7c0 3.8659932-3.1340068 7-7 7s-7-3.1340068-7-7c0-3.86599325 3.1340068-7 7-7s7 3.13400675 7 7z" fill="#fdd834"/><path id="Shape" d="m47 7c.0012229 3.2889681-2.287431 6.1352213-5.5 6.84-.8231539-.1783529-1.6062885-.5072016-2.31-.97-2.363293-1.5385445-3.5737928-4.34403925-3.0716456-7.11894845.5021472-2.77490921 2.6190503-4.97827759 5.3716456-5.59105155 3.2184477.69764012 5.5136131 3.54681093 5.51 6.84z" fill="#ffeb3a"/><path id="Shape" d="m58 39v2c-.0032948 1.1032019-.8967981 1.9967052-2 2h-36.24l-18.88-18.88c-.65820136-.658167-.97284966-1.5850249-.85137022-2.5078768.12147944-.9228518.66526654-1.7367097 1.47137022-2.2021232.9801022-.5776248 2.20447687-.5426427 3.15.09.423.274 13.9 13.783 17.63 17.5h33.72c1.1032019.0032948 1.9967052.8967981 2 2z" fill="#f57c00"/><path id="Shape" d="m55 39v2c-.0032948 1.1032019-.8967981 1.9967052-2 2h-33.24l-18.88-18.88c-.65820136-.658167-.97284966-1.5850249-.85137022-2.5078768.12147944-.9228518.66526654-1.7367097 1.47137022-2.2021232.648.389-.787-.9 17.78 17.59h33.72c1.1032019.0032948 1.9967052.8967981 2 2z" fill="#ff9801"/><path id="Shape" d="m19.76 43h-12.76c-1.65685425 0-3-1.3431458-3-3s1.34314575-3 3-3h6.76z" fill="#783e22"/><path id="Shape" d="m16.76 43h-9.76c-1.65685425 0-3-1.3431458-3-3s1.34314575-3 3-3h3.76z" fill="#a0522d"/><path id="Shape" d="m15 43v5.9c-.0032948 1.1032019-.8967981 1.9967052-2 2-.5874676.0693158-1.1828976.0182789-1.75-.15-.7557618-.303045-1.25082927-1.0357448-1.25-1.85l-.00000104-5.9z" fill="#6d4122"/><path id="Shape" d="m12.500001 43-.000001 5.9c.0008293.8142552-.4942382 1.546955-1.25 1.85-.7557618-.303045-1.25082927-1.0357448-1.25-1.85l-.00000104-5.9z" fill="#91562d"/><path id="Shape" d="m54 47c.0003396 2.008168-1.4900945 3.7044861-3.4816118 3.9625511s-3.8650895-1.0023381-4.3766117-2.944266c-.5115221-1.9419279.4980036-3.9617662 2.3582235-4.7182851 1.231661-.4982346 2.630331-.3523962 3.732715.3892075 1.1023839.7416037 1.7645959 1.982177 1.767285 3.3107925z" fill="#6d4122"/><path id="Shape" d="m48.5 50.7c-1.5087556-.6089468-2.4966481-2.0729906-2.4966481-3.7s.9878925-3.0910532 2.4966481-3.7c1.5087556.6089468 2.4966481 2.0729906 2.4966481 3.7s-.9878925 3.0910532-2.4966481 3.7z" fill="#91562d"/></g><g id="Outline" fill="#000" transform="translate(-1)"><path id="Shape" d="m37 15c0 4.418278 3.581722 8 8 8s8-3.581722 8-8-3.581722-8-8-8c-4.4162219.00495988-7.9950401 3.5837781-8 8zm8-6c3.3137085 0 6 2.6862915 6 6s-2.6862915 6-6 6-6-2.6862915-6-6c.0033074-3.3123376 2.6876624-5.99669262 6-6z"/><path id="Shape" d="m44 27v2c0 .5522847.4477153 1 1 1s1-.4477153 1-1v-2c0-.5522847-.4477153-1-1-1s-1 .4477153-1 1z"/><path id="Shape" d="m46 3v-2c0-.55228475-.4477153-1-1-1s-1 .44771525-1 1v2c0 .55228475.4477153 1 1 1s1-.44771525 1-1z"/><path id="Shape" d="m59 16c.5522847 0 1-.4477153 1-1s-.4477153-1-1-1h-2c-.5522847 0-1 .4477153-1 1s.4477153 1 1 1z"/><path id="Shape" d="m31 16h2c.5522847 0 1-.4477153 1-1s-.4477153-1-1-1h-2c-.5522847 0-1 .4477153-1 1s.4477153 1 1 1z"/><path id="Shape" d="m55.606 4.394c-.3904999-.39038194-1.0235001-.39038194-1.414 0l-1.414 1.414c-.2599566.25107447-.3642126.62287789-.2726972.97250732.0915155.34962944.3645604.6226744.7141899.71418984.3496294.09151544.7214328-.01274058.9725073-.27269716l1.414-1.414c.3903819-.39049985.3903819-1.02350015 0-1.414z"/><path id="Shape" d="m34.394 25.606c.3904999.3903819 1.0235001.3903819 1.414 0l1.414-1.414c.3789722-.3923789.3735524-1.0160848-.0121814-1.4018186s-1.0094397-.3911536-1.4018186-.0121814l-1.414 1.414c-.3903819.3904999-.3903819 1.0235001 0 1.414z"/><path id="Shape" d="m54.192 22.778c-.3923789-.3789722-1.0160848-.3735524-1.4018186.0121814s-.3911536 1.0094397-.0121814 1.4018186c1.538 1.538 1.595 1.708 2.122 1.708.4043959-.0000863.7689341-.2437275.923678-.6173454.1547439-.373618.0692299-.8036603-.216678-1.0896546z"/><path id="Shape" d="m35.808 4.394c-.3923789-.37897221-1.0160848-.37355237-1.4018186.01218142-.3857338.3857338-.3911536 1.00943969-.0121814 1.40181858 1.537 1.538 1.594 1.707 2.121 1.707.4043959-.00008635.7689341-.2437275.923678-.61734544s.0692299-.80366031-.216678-1.08965456z"/><path id="Shape" d="m58 44c-7.632 0-6.9.037-6.851-.073.5962013-1.3233592.3084347-2.877777-.722-3.9l-6.89-6.89c-1.9552376-1.9490652-5.1187624-1.9490652-7.074 0l-4.96 4.96c-.7807702.7794319-2.0452298.7794319-2.826 0l-10.1-10.1c2.6416801-1.5749445 3.9435741-4.69151 3.2071858-7.6775871-.7363884-2.9860771-3.338024-5.1400037-6.4090695-5.3061486-3.0710454-.1661448-5.88987285 1.6945325-6.9441163 4.5837357-1.57216189-.9078872-3.55468436-.6704569-4.868.583-1.56019529 1.5617701-1.56019529 4.0922299 0 5.654l.367.367c-1.36967454.3656252-2.43869258 1.4366974-2.80168775 2.8070713s.03561815 2.8302035 1.04468775 3.8259287l11.173 11.166h-4.346c-2.209139 0-4 1.790861-4 4s1.790861 4 4 4h2v5c0 1.6568542 1.3431458 3 3 3h1c1.6568542 0 3-1.3431458 3-3v-5h30.026c-1.5577271 2.0546425-1.2924015 4.9579466.6119486 6.6961987s4.8197527 1.7382521 6.7241028 0 2.1696757-4.6415562.6119486-6.6961987h2.026c1.6568542 0 3-1.3431458 3-3v-2c0-1.6568542-1.3431458-3-3-3zm-20.123-9.453c1.1735545-1.1699531 3.0724455-1.1699531 4.246 0l6.89 6.891c.4346999.4332464.5616215 1.0876017.3204192 1.6519491-.2412023.5643473-.8018656.9248285-1.4154192.9100509-.4167426-.0263635-.808803-.2067112-1.1-.506l-6.109-6.12c-.1878183-.1884069-.4429684-.2942096-.709-.294-.553 0-.625.211-2.459 2.047l-2.122-2.122zm2.123 4.948 4.5 4.505h-9zm-7.083.012 1.088-1.088 2.123 2.123-3.453 3.458h-7.981l-1.3-1.3 4.059-3.04c1.5759295 1.3999926 3.9688822 1.3329864 5.464-.153zm-17.917-22.507c2.4607997-.0046645 4.5576115 1.7853127 4.939124 4.216363.3815124 2.4310502-1.0661913 4.7772796-3.410124 5.526637-.2933297-.087194-.5949674-.1434997-.9-.168l-5.521-5.51c.4369782-2.3574397 2.4944038-4.0670544 4.892-4.065zm-10.029 4.593c.79134003-.7659643 2.04765997-.7659643 2.839 0l.437.428c.079.1-.133-.112 6.227 6.226.195131.1992644.4677565.3030521.746.284 1.275.046 1.679.611 2.512 1.444l-.288.193c-.3038342.195718-.4784196.54015-.4566519.9009088.0217677.3607589.2365008.6816999.5616637.839465.3251629.1577652.7101508.1278016 1.0069882-.0783738l.618-.413 4.012 4.011c-.2694407.3969973-.2189469.9294115.1203208 1.2686792s.8716819.3897615 1.2686792.1203208l1.432 1.433-4.039 3.025c-15.762-15.748-3.113-3.071-14.141-14.1-.14774243-.1373233-.30478186-.2642914-.47-.38l-2.38-2.38c-.77843508-.7786552-.78111697-2.0400417-.006-2.822zm2.029 26.407c0-1.1045695.8954305-2 2-2h6.346l4 4h-10.346c-1.1045695 0-2-.8954305-2-2zm9 9c0 .5522847-.4477153 1-1 1h-1c-.5522847 0-1-.4477153-1-1v-5h3zm39-2c0 1.6568542-1.3431458 3-3 3s-3-1.3431458-3-3 1.3431458-3 3-3 3 1.3431458 3 3zm4-6c0 .5522847-.4477153 1-1 1h-35.826l-18.587-18.587c-.77943189-.7807702-.77943189-2.0452298 0-2.826.79430586-.745997 2.03169414-.745997 2.826 0l17.12 17.119c.1880665.1868129.4419238.2923773.707.294h33.76c.5522847 0 1 .4477153 1 1z"/><circle id="Oval" cx="52" cy="55" r="1"/></g></g></svg>