<svg id="Layer_1" height="512" viewBox="0 0 128 128" width="512" xmlns="http://www.w3.org/2000/svg" data-name="Layer 1"><path d="m55.955 95.869h16.091v8.729h-16.091z" fill="#00b5bc"/><path d="m64 97.619h8.841v6.979h-8.841z" fill="#0b789c"/><path d="m80.667 97.619h-32.267a15.6 15.6 0 0 1 -15.587-15.584 1.75 1.75 0 0 1 3.5 0 12.1 12.1 0 0 0 12.087 12.084h32.267a12.1 12.1 0 0 0 12.083-12.084v-17.256a12.15 12.15 0 0 0 -3.671-8.679l-17.457-16.925a1.75 1.75 0 0 1 2.438-2.513l17.457 16.931a15.673 15.673 0 0 1 4.733 11.186v17.256a15.6 15.6 0 0 1 -15.583 15.584z" fill="#9f5f4b"/><path d="m74.06 36.662a1.75 1.75 0 0 0 -2.437 2.513l17.456 16.925a12.15 12.15 0 0 1 3.671 8.674v17.261a12.1 12.1 0 0 1 -12.083 12.084h-16.667v3.5h16.667a15.6 15.6 0 0 0 15.583-15.584v-17.256a15.673 15.673 0 0 0 -4.733-11.187z" fill="#724435"/><path d="m25.625 104.598h76.75v7.284h-76.75z" fill="#5f69e2"/><path d="m62.729 72.263-22.804-22.804 10.942-3.872 15.734 15.733z" fill="#ffd322"/><path d="m85.784 16.278h9.75v10.5h-9.75z" fill="#ffd322" transform="matrix(.707 .707 -.707 .707 41.776 -57.801)"/><path d="m61.716 19.397h22.25v39.899h-22.25z" fill="#00b5bc" transform="matrix(.707 .707 -.707 .707 49.157 -39.982)"/><path d="m19.458 74.752h30.209v7.284h-30.209z" fill="#5f69e2"/><path d="m117 110.131h-106a1.75 1.75 0 0 0 0 3.5h106a1.75 1.75 0 0 0 0-3.5z" fill="#3440da"/><path d="m64 104.598h38.375v7.284h-38.375z" fill="#3440da"/><path d="m58.409 53.129 8.192 8.191 28.213-28.213-8.058-8.058z" fill="#0b789c"/><path d="m90.394 28.688 7.425-7.425-3.604-3.604-7.459 7.39z" fill="#ff9e21"/><path d="m62.729 72.263 3.872-10.943-8.192-8.191-7.442 7.372z" fill="#ff9e21"/><path d="m34.563 74.752h15.104v7.284h-15.104z" fill="#3440da"/><g fill="#500000"><path d="m117 110.131h-12.875v-5.531a1.75 1.75 0 0 0 -1.75-1.75h-28.58v-5.231h6.872a15.6 15.6 0 0 0 15.583-15.584v-17.256a15.673 15.673 0 0 0 -4.733-11.187l-7.47-7.244 12-12a1.749 1.749 0 0 0 0-2.475l-10.072-10.08 4.95-4.95 4.42 4.419-2.082 2.082a1.75 1.75 0 1 0 2.475 2.475l3.319-3.319a1.749 1.749 0 0 0 0-2.475l-6.895-6.895a1.749 1.749 0 0 0 -2.475 0l-6.187 6.189-3.182-3.182a1.749 1.749 0 0 0 -2.475 0l-27.932 27.932-10.571 3.74a1.75 1.75 0 0 0 -.653 2.887l22.8 22.8a1.75 1.75 0 0 0 2.887-.653l3.74-10.57 8.767-8.767a1.75 1.75 0 0 0 -2.475-2.475l-7.81 7.81-13.253-13.254 25.738-25.738 13.258 13.258-12.024 12.024a1.749 1.749 0 0 0 0 2.475l.015.012v.007l8.745 8.48a12.15 12.15 0 0 1 3.671 8.674v17.256a12.1 12.1 0 0 1 -12.079 12.084h-32.267a12.091 12.091 0 0 1 -11.945-10.334h13.212a1.75 1.75 0 0 0 1.75-1.75v-7.283a1.75 1.75 0 0 0 -1.75-1.752h-24.042a1.75 1.75 0 1 0 0 3.5h22.292v3.783h-26.708v-5.531a1.75 1.75 0 0 0 -3.5 0v7.283a1.75 1.75 0 0 0 1.75 1.75h13.459a15.6 15.6 0 0 0 15.482 13.834h5.8v5.229h-28.575a1.75 1.75 0 0 0 -1.75 1.75v5.534h-12.875a1.75 1.75 0 0 0 0 3.5h65.75a1.75 1.75 0 0 0 0-3.5h-49.375v-3.784h73.25v3.784h-8.958a1.75 1.75 0 0 0 0 3.5h25.333a1.75 1.75 0 0 0 0-3.5zm-55-41.067-18.876-18.881 7.287-2.583 14.172 14.177zm-4.3 28.555h12.59v5.229h-12.59z"/><path d="m84.833 110.131h-1a1.75 1.75 0 0 0 0 3.5h1a1.75 1.75 0 1 0 0-3.5z"/></g></svg>