<svg id="Layer_1" height="512" viewBox="0 0 128 128" width="512" xmlns="http://www.w3.org/2000/svg" data-name="Layer 1"><path d="m11 26.166h53v77.132h-53z" fill="#00b5bc"/><path d="m64 26.166h53v77.132h-53z" fill="#0b789c"/><path d="m64 97.3a95.241 95.241 0 0 0 -44 0v-71.134s22-7.233 44 0z" fill="#f6ebd8"/><path d="m64 97.3a95.241 95.241 0 0 1 44 0v-71.134s-22-7.233-44 0z" fill="#ecd5af"/><g fill="#500000"><path d="m117 24.416h-8.731a82.054 82.054 0 0 0 -20.969-3.187 1.75 1.75 0 0 0 -.09 3.5 82 82 0 0 1 19.043 2.747v67.624a97.913 97.913 0 0 0 -40.5-.032v-67.611a60.8 60.8 0 0 1 6.771-1.645 1.75 1.75 0 0 0 -.629-3.443 64.06 64.06 0 0 0 -7.895 1.966c-22.1-7.035-43.634-.135-44.546.165a1.75 1.75 0 0 0 -1.2 1.663v71.137a1.75 1.75 0 0 0 1.746 1.752 1.73 1.73 0 0 0 .414-.05 95.342 95.342 0 0 1 41.836-.331v2.877h-49.5v-75.382a1.75 1.75 0 1 0 -3.5 0v77.134a1.75 1.75 0 0 0 1.75 1.75h53a1.75 1.75 0 0 0 1.75-1.75v-4.63a95.154 95.154 0 0 1 41.836.33 1.75 1.75 0 0 0 2.164-1.7v-69.384h5.5v73.632h-43.25a1.75 1.75 0 0 0 0 3.5h45a1.75 1.75 0 0 0 1.75-1.75v-77.132a1.75 1.75 0 0 0 -1.75-1.75zm-95.25 70.684v-67.623c4.725-1.3 22.593-5.478 40.5-.029v67.624a97.936 97.936 0 0 0 -40.5.028z"/><path d="m79.184 24.935c.046 0 .092 0 .138-.005l.68-.05a1.75 1.75 0 1 0 -.242-3.491l-.709.052a1.75 1.75 0 0 0 .134 3.495z"/><path d="m56.546 39.853a45.731 45.731 0 0 0 -16.114-2.092 1.75 1.75 0 1 0 .137 3.5 42.229 42.229 0 0 1 14.884 1.92 1.75 1.75 0 0 0 1.093-3.325z"/><path d="m28 43.266a1.744 1.744 0 0 0 .544-.087 39.116 39.116 0 0 1 4.5-1.077 1.75 1.75 0 0 0 -.639-3.441 41.741 41.741 0 0 0 -4.957 1.192 1.75 1.75 0 0 0 .552 3.413z"/><path d="m56.546 52.594c-14.38-4.728-28.5-.2-29.093 0a1.75 1.75 0 0 0 1.093 3.325c.135-.044 13.606-4.373 26.907 0a1.75 1.75 0 1 0 1.093-3.325z"/><path d="m56.546 65.334c-14.38-4.728-28.5-.2-29.093 0a1.75 1.75 0 0 0 1.093 3.325c.135-.044 13.606-4.373 26.907 0a1.75 1.75 0 1 0 1.093-3.325z"/><path d="m56.546 78.075c-14.38-4.728-28.5-.2-29.093 0a1.75 1.75 0 0 0 1.093 3.325c.135-.044 13.606-4.373 26.907 0a1.75 1.75 0 0 0 1.093-3.325z"/><path d="m100.547 39.853c-.595-.195-14.71-4.727-29.094 0a1.75 1.75 0 1 0 1.094 3.325c13.261-4.359 26.773-.043 26.908 0a1.75 1.75 0 0 0 1.092-3.326z"/><path d="m100.547 52.594c-.595-.2-14.71-4.727-29.094 0a1.75 1.75 0 1 0 1.094 3.325c13.261-4.359 26.773-.043 26.908 0a1.75 1.75 0 0 0 1.092-3.326z"/><path d="m72 68.748a1.754 1.754 0 0 0 .547-.088 42.562 42.562 0 0 1 15.488-1.893 1.75 1.75 0 1 0 .178-3.5 46.063 46.063 0 0 0 -16.76 2.063 1.751 1.751 0 0 0 .547 3.418z"/><path d="m100.547 65.334a39.438 39.438 0 0 0 -4.1-1.027 1.75 1.75 0 0 0 -.693 3.431 36.573 36.573 0 0 1 3.706.922 1.75 1.75 0 0 0 1.092-3.326z"/><path d="m70.338 80.284a1.749 1.749 0 0 0 2.209 1.116c13.261-4.36 26.773-.044 26.908 0a1.75 1.75 0 0 0 1.092-3.326c-.595-.2-14.71-4.727-29.094 0a1.75 1.75 0 0 0 -1.115 2.21z"/></g></svg>